PathFileType	4	(X/Y/Z)	D:\TRACE\v60_Jaco2_6-2-23\JustArmDRS_Motion3_3-v60.trc
DataRate	CameraRate	NumFrames	NumMarkers	Units	OrigDataRate	OrigDataStartFrame	OrigNumFrames
100.00	100.00	      24	9	mm	100.00	1	      7000
Frame#	Time	front left toe			Front right toe			aft left toe			aft right toe			Arm			FL body			FR body			AL Body			AR Body			
		X1	Y1	Z1	X2	Y2	Z2	X3	Y3	Z3	X4	Y4	Z4	X5	Y5	Z5	X6	Y6	Z6	X7	Y7	Z7	X8	Y8	Z8	X9	Y9	Z9	

1	0.000	-204.97643	63.42702	-206.17657	193.42154	52.17977	-142.63144	-292.98230	-47.79653	421.44330	115.55154	-51.21603	436.28555	-7.89300	1248.85449	-75.99465	-68.00599	644.78754	-298.89261	88.87542	643.33276	-278.80914	-179.37007	482.13916	625.07672	-28.51272	472.32477	642.35333	
2	0.010	-204.94977	63.40996	-206.15054	193.41649	52.17531	-142.57680	-292.96979	-47.85991	421.41946	115.60679	-51.23140	436.31927	-8.01319	1248.84094	-75.89687	-68.02293	644.78430	-298.89752	88.83152	643.35168	-278.75378	-179.50740	481.95248	625.12225	-28.49366	472.25098	642.39154	
3	0.020	-204.94556	63.36508	-206.13626	193.43803	52.14513	-142.61961	-293.01923	-47.81406	421.43771	115.54259	-51.26704	436.29770	-8.15182	1248.83081	-75.76268	-68.07334	644.79425	-298.87857	88.87925	643.32013	-278.67001	-179.58711	481.87039	625.15021	-28.56640	472.19312	642.39905	
4	0.030	-204.94916	63.39692	-206.14288	193.39658	52.17147	-142.61795	-292.99960	-47.85987	421.40866	115.51090	-51.25412	436.29404	-8.29313	1248.83179	-75.66727	-68.08804	644.80902	-298.86060	88.82298	643.35681	-278.58197	-179.67711	481.80756	625.20355	-28.64932	472.17090	642.42291	
5	0.040	-204.94803	63.38478	-206.12401	193.39032	52.22585	-142.62883	-292.94421	-47.91120	421.41953	115.52103	-51.24305	436.27658	-8.51033	1248.87170	-75.59496	-68.10964	644.83765	-298.84415	88.83680	643.39069	-278.47568	-179.71138	481.75455	625.22900	-28.74540	472.13467	642.45813	
6	0.050	-204.93349	63.35274	-206.12381	193.35422	52.22061	-142.60849	-292.97192	-47.90543	421.41956	115.48235	-51.24971	436.27057	-8.13869	1248.72534	-75.54599	-68.13345	644.85486	-298.83588	88.83680	643.42664	-278.39194	-179.73480	481.73798	625.26947	-28.92171	472.09579	642.50482	
7	0.060	-204.96628	63.36787	-206.15541	193.40366	52.29297	-142.57770	-292.99448	-47.87351	421.42026	115.43488	-51.26754	436.26733	-8.22922	1248.71497	-75.50931	-68.16344	644.86853	-298.81815	88.90755	643.42700	-278.28146	-179.78218	481.71161	625.28973	-28.99996	472.08719	642.51782	
8	0.070	-204.95297	63.36583	-206.14650	193.36833	52.24560	-142.53345	-293.05923	-47.82938	421.41931	115.46732	-51.25645	436.31281	-8.40084	1248.72522	-75.50252	-68.16290	644.85925	-298.82184	88.87576	643.45416	-278.25577	-179.82411	481.69693	625.32806	-29.17402	472.10162	642.57922	
9	0.080	-204.94122	63.35095	-206.12978	193.41821	52.36934	-142.52345	-292.98837	-47.91243	421.39957	115.62525	-51.17044	436.33618	-8.40281	1248.72791	-75.48476	-68.18266	644.86121	-298.82394	88.91193	643.51385	-278.21786	-179.88733	481.66559	625.29492	-29.26219	472.11115	642.56128	
10	0.090	-204.96907	63.36176	-206.14072	193.34891	52.33102	-142.53610	-292.99667	-47.94452	421.39417	115.67812	-51.16481	436.37186	-9.06006	1248.86792	-75.43421	-68.18684	644.87433	-298.82431	88.92510	643.51788	-278.24106	-179.98317	481.61502	625.20673	-29.35561	472.14017	642.55530	
11	0.100	-204.96921	63.31723	-206.14830	193.45099	52.40473	-142.52478	-293.11066	-47.85464	421.44104	115.51643	-51.16204	436.29672	-9.12546	1248.89063	-75.42991	-68.20419	644.86267	-298.82605	88.82471	643.54272	-278.25089	-180.12491	481.57440	625.11127	-29.33514	472.09332	642.54993	
12	0.110	-204.96454	63.34896	-206.13687	193.26721	52.31184	-142.61494	-293.02490	-47.91862	421.39157	115.49352	-51.19949	436.31049	-9.20054	1248.87830	-75.41681	-68.21263	644.87494	-298.81943	88.81096	643.54321	-278.28644	-180.33228	481.58087	625.09259	-29.44271	472.12799	642.52527	
13	0.120	-204.98958	63.30613	-206.16264	193.30138	52.31209	-142.60042	-293.09595	-47.89149	421.38159	115.42648	-51.21835	436.32202	-9.21615	1248.86902	-75.45664	-68.26212	644.85730	-298.83475	88.78756	643.51666	-278.31778	-180.42720	481.51181	624.99670	-29.48715	472.13828	642.48999	
14	0.130	-204.99687	63.33683	-206.17879	193.25948	52.29526	-142.63431	-293.05331	-47.92768	421.37894	115.34400	-51.23648	436.30350	-9.21482	1248.84961	-75.49242	-68.29093	644.83954	-298.85965	88.68480	643.57770	-278.42603	-180.51038	481.53433	624.96002	-29.56863	472.16019	642.47046	
15	0.140	-204.94928	63.29321	-206.14044	193.29254	52.33763	-142.59148	-293.03952	-47.92628	421.39499	115.42592	-51.21558	436.30475	-9.23275	1248.85303	-75.50867	-68.35310	644.82404	-298.88107	88.58514	643.59467	-278.51276	-180.53683	481.52618	624.93451	-29.59793	472.17670	642.44647	
16	0.150	-204.97592	63.29296	-206.17207	193.44917	52.37961	-142.55334	-293.08533	-47.90453	421.38086	115.49017	-51.15633	436.30588	-9.26479	1248.83582	-75.58229	-68.38394	644.80780	-298.87979	88.54601	643.60120	-278.55298	-180.54553	481.49414	624.85498	-29.62843	472.19568	642.40680	
17	0.160	-204.99878	63.30666	-206.16872	193.35188	52.35066	-142.57434	-293.06375	-47.93436	421.37268	115.57536	-51.12716	436.32681	-9.36568	1248.83997	-75.58595	-68.39635	644.79932	-298.90799	88.45091	643.64099	-278.64743	-180.58044	481.48416	624.80176	-29.67019	472.21713	642.35663	
18	0.170	-205.00446	63.29793	-206.18289	193.31125	52.35658	-142.56726	-293.05023	-47.96886	421.38083	115.51727	-51.14315	436.31186	-9.46555	1248.84790	-75.60172	-68.42886	644.81171	-298.93576	88.44141	643.64539	-278.69534	-180.60161	481.44003	624.70862	-29.68687	472.21201	642.29858	
19	0.180	-204.98177	63.29973	-206.16417	193.29788	52.31856	-142.59479	-293.08380	-47.91436	421.37991	115.42966	-51.21226	436.31436	-9.61481	1248.84192	-75.64205	-68.47398	644.81360	-298.96432	88.56502	643.75366	-278.93539	-180.62646	481.44403	624.69061	-29.72699	472.22333	642.25336	
20	0.190	-205.01875	63.30177	-206.18265	193.29672	52.31871	-142.62325	-293.01321	-47.97707	421.36801	115.34542	-51.20955	436.27151	-9.69475	1248.84521	-75.67253	-68.49944	644.81213	-298.99240	88.49110	643.85468	-279.01358	-180.62587	481.42053	624.64996	-29.77830	472.22018	642.21820	
21	0.200	-205.01233	63.33164	-206.21312	193.24693	52.31363	-142.70015	-293.07968	-47.93015	421.37854	115.42648	-51.12286	436.27988	-9.77909	1248.87720	-75.74008	-68.52361	644.84027	-299.01456	88.46262	643.87836	-279.04764	-180.65500	481.43970	624.60760	-29.76935	472.22598	642.17352	
22	0.210	-205.02228	63.34184	-206.20505	193.18675	52.29070	-142.69585	-293.04739	-47.94608	421.38776	115.41156	-51.13304	436.23944	-9.89366	1248.92188	-75.80431	-68.56312	644.82581	-299.04648	88.41785	643.90009	-279.09164	-180.63284	481.43719	624.60114	-29.74328	472.19656	642.14783	
23	0.220	-204.98306	63.29647	-206.16550	193.27153	52.30659	-142.64467	-293.00391	-47.97015	421.34860	115.44647	-51.10925	436.25879	-9.93126	1248.94031	-75.77734	-68.60363	644.84839	-299.03323	88.38302	643.93353	-279.12067	-180.62776	481.44589	624.60468	-29.80931	472.18570	642.06720	
24	0.230	-205.01440	63.33825	-206.18771	193.36520	52.37427	-142.56784	-293.00250	-47.98899	421.36423	115.57117	-51.06505	436.30457	-10.00457	1248.96313	-75.78177	-68.65637	644.88007	-299.08463	88.37386	643.95184	-279.11475	-180.60747	481.42166	624.54486	-29.83879	472.17346	642.02124	
